<?xml version="1.0" encoding="iso-8859-1"?>
<!-- Uploaded to: SVG Repo, www.svgrepo.com, Generator: SVG Repo Mixer Tools -->
<svg height="800px" width="800px" version="1.1" id="Capa_1" xmlns="http://www.w3.org/2000/svg" xmlns:xlink="http://www.w3.org/1999/xlink" 
	 viewBox="0 0 329.482 329.482" xml:space="preserve">
<g>
	<g>
		<path style="fill:#d3d3d3;" d="M120.752,292.17c9.034,0.691,16.6-8.072,16.6-16.6c0-9.567-7.582-15.909-16.6-16.6
			c-5.499-0.419-8.757-1.991-11.803-5.173c0.555,0.484-0.435-1.044-1.066-2.002c0.092-0.163-1.082-3.111-1.11-3.204
			c-0.582-2.159-0.555-6.924-0.163-11.145c0.832-9.023-8.18-16.6-16.6-16.6c-9.676,0-15.768,7.593-16.6,16.6
			c-1.273,13.766,1.893,27.081,10.514,37.986C92.888,286.775,106.872,291.11,120.752,292.17z"/>
		<path style="fill:#d3d3d3;" d="M40.412,259.362l0.364,3.867l0.435-0.005c6.924,37.899,40.048,66.259,79.535,66.259
			c44.644,0,80.966-36.322,80.966-80.966c0-5.357-0.528-10.726-1.572-15.953c-11.438-81.678-70.441-125.909-72.949-127.753
			l-6.505-4.786l-6.462,4.846C39.286,161.072,39.204,238.688,39.727,251.35c-0.087,0.832-0.114,1.67-0.054,2.502
			C39.547,255.728,39.819,257.61,40.412,259.362z M120.54,127.579c14.549,13.092,50.088,50.398,58.095,108.303l0.114,0.685
			c0.8,3.905,1.202,7.93,1.202,11.95c0.005,32.651-26.554,59.21-59.204,59.21c-31.465,0-57.398-24.639-59.036-56.088l-0.288-4.145
			C61.477,231.943,65.53,173.044,120.54,127.579z"/>
		<path style="fill:#d3d3d3;" d="M246.922,3.59L242.044,0l-4.846,3.639c-46.112,34.582-42.99,83.397-42.833,85.453l0.691,7.734
			l0.473-0.011c4.759,21.473,23.877,37.334,46.564,37.334c26.331,0,47.75-21.419,47.75-47.75c0-3.225-0.326-6.462-0.881-9.1
			C282.45,30.203,248.369,4.656,246.922,3.59z M242.092,117.832c-16.703,0-30.47-13.081-31.34-29.779l-0.163-2.524
			c0.065-8.708,2.431-40.015,31.329-64.774c8.643,8.115,26.679,28.37,30.965,59.291c0.424,2.083,0.642,4.215,0.642,6.347
			C273.525,103.728,259.421,117.832,242.092,117.832z"/>
		<path style="fill:#d3d3d3;" d="M242.087,92.301c-3.106-0.239-4.95-1.126-6.668-2.921c0.315,0.272-0.245-0.593-0.604-1.131
			c0.054-0.092-0.615-1.757-0.626-1.811c-0.332-1.218-0.31-3.911-0.092-6.293c0.473-5.096-4.623-9.377-9.377-9.377
			c-5.466,0-8.909,4.291-9.377,9.377c-0.718,7.778,1.066,15.3,5.939,21.457c5.064,6.402,12.961,8.849,20.804,9.453
			c5.102,0.392,9.377-4.563,9.377-9.377C251.464,96.271,247.183,92.693,242.087,92.301z"/>
	</g>
</g>
</svg>